# Blender 4.2.0
# www.blender.org
mtllib door.mtl
o SM_Door
v -18.932280 -4.007827 7.430695
v -17.443718 -4.007827 7.430695
v -18.932280 -1.817827 7.430695
v -17.443718 -1.817827 7.430695
v -18.932280 -1.817827 7.380694
v -17.443718 -1.817827 7.380694
v -18.932280 -4.007827 7.380695
v -17.443718 -4.007827 7.380695
vn -0.0000 -0.0000 1.0000
vn -0.0000 1.0000 -0.0000
vn -0.0000 -0.0000 -1.0000
vn -0.0000 -1.0000 -0.0000
vn 1.0000 -0.0000 -0.0000
vn -1.0000 -0.0000 -0.0000
vt 0.824586 0.994660
vt 0.156467 0.994660
vt 0.156467 0.011710
vt 0.824586 0.011710
vt 0.706100 0.679829
vt 0.706100 0.011710
vt 0.728542 0.011710
vt 0.728542 0.679829
vt 0.156466 0.011710
vt 0.824586 0.011710
vt 0.824586 0.994660
vt 0.156467 0.994660
vt 0.728542 0.011710
vt 0.728542 0.679829
vt 0.825900 0.011710
vt 0.825900 0.994660
vt 0.803458 0.011710
vt 0.803458 0.994660
vt 0.825900 0.994660
vt 0.825900 0.011710
s 0
usemtl M_Door
f 4/1/1 3/2/1 1/3/1
f 4/1/1 1/3/1 2/4/1
f 3/5/2 4/6/2 6/7/2
f 3/5/2 6/7/2 5/8/2
f 8/9/3 7/10/3 5/11/3
f 8/9/3 5/11/3 6/12/3
f 2/13/4 1/14/4 7/5/4
f 2/13/4 7/5/4 8/6/4
f 8/15/5 6/16/5 2/17/5
f 4/18/5 2/17/5 6/16/5
f 3/19/6 7/17/6 1/20/6
f 7/17/6 3/19/6 5/18/6
