{
  "accessors": [
    {
      "bufferView": 2,
      "componentType": 5126,
      "count": 59739,
      "max": [
        76.18610382080078,
        103.69779968261719,
        61.778053283691406
      ],
      "min": [
        -59.884395599365234,
        5.060286998748779,
        -12.349225044250488
      ],
      "type": "VEC3"
    },
    {
      "bufferView": 2,
      "byteOffset": 716868,
      "componentType": 5126,
      "count": 59739,
      "max": [
        0.9999939799308777,
        0.9999733567237854,
        0.9999916553497314
      ],
      "min": [
        -0.9999617338180542,
        -0.999957263469696,
        -0.9999895095825195
      ],
      "type": "VEC3"
    },
    {
      "bufferView": 1,
      "componentType": 5126,
      "count": 59739,
      "max": [
        0.6000000238418579,
        1.0
      ],
      "min": [
        0.0,
        0.0
      ],
      "type": "VEC2"
    },
    {
      "bufferView": 0,
      "componentType": 5125,
      "count": 355104,
      "type": "SCALAR"
    },
    {
      "bufferView": 2,
      "byteOffset": 1433736,
      "componentType": 5126,
      "count": 12,
      "max": [
        37.424232482910156,
        72.92155456542969,
        58.72608184814453
      ],
      "min": [
        -38.721031188964844,
        51.275386810302734,
        0.13538500666618347
      ],
      "type": "VEC3"
    },
    {
      "bufferView": 2,
      "byteOffset": 1433880,
      "componentType": 5126,
      "count": 12,
      "max": [
        0.7117379903793335,
        0.448885053396225,
        -0.6117209792137146
      ],
      "min": [
        -0.5489550828933716,
        -0.45319604873657227,
        -0.8134821057319641
      ],
      "type": "VEC3"
    },
    {
      "bufferView": 1,
      "byteOffset": 477912,
      "componentType": 5126,
      "count": 12,
      "max": [
        1.0,
        1.0
      ],
      "min": [
        0.0,
        0.0
      ],
      "type": "VEC2"
    },
    {
      "bufferView": 0,
      "byteOffset": 1420416,
      "componentType": 5125,
      "count": 18,
      "type": "SCALAR"
    },
    {
      "bufferView": 2,
      "byteOffset": 1434024,
      "componentType": 5126,
      "count": 38816,
      "max": [
        71.88697814941406,
        107.37245178222656,
        65.62171173095703
      ],
      "min": [
        -63.64657211303711,
        30.924287796020508,
        -1.2558549642562866
      ],
      "type": "VEC3"
    },
    {
      "bufferView": 2,
      "byteOffset": 1899816,
      "componentType": 5126,
      "count": 38816,
      "max": [
        0.9989606142044067,
        0.9991298913955688,
        0.9999673366546631
      ],
      "min": [
        -0.9999771118164063,
        -0.952056348323822,
        -0.9999582171440125
      ],
      "type": "VEC3"
    },
    {
      "bufferView": 1,
      "byteOffset": 478008,
      "componentType": 5126,
      "count": 38816,
      "max": [
        1.0,
        1.0
      ],
      "min": [
        0.0,
        0.0
      ],
      "type": "VEC2"
    },
    {
      "bufferView": 0,
      "byteOffset": 1420488,
      "componentType": 5125,
      "count": 58224,
      "type": "SCALAR"
    },
    {
      "bufferView": 2,
      "byteOffset": 2365608,
      "componentType": 5126,
      "count": 65532,
      "max": [
        44.3399543762207,
        77.69772338867188,
        60.114784240722656
      ],
      "min": [
        -63.25278854370117,
        27.414661407470703,
        -0.11532899737358093
      ],
      "type": "VEC3"
    },
    {
      "bufferView": 2,
      "byteOffset": 3151992,
      "componentType": 5126,
      "count": 65532,
      "max": [
        0.9999987483024597,
        0.9999999403953552,
        0.9999998807907104
      ],
      "min": [
        -0.9999988079071045,
        -0.9999993443489075,
        -0.9999997615814209
      ],
      "type": "VEC3"
    },
    {
      "bufferView": 3,
      "componentType": 5126,
      "count": 65532,
      "max": [
        0.9999994039535522,
        0.9999927282333374,
        0.999994158744812,
        1.0
      ],
      "min": [
        -0.9999969601631165,
        -0.9999987483024597,
        -0.9999969601631165,
        1.0
      ],
      "type": "VEC4"
    },
    {
      "bufferView": 1,
      "byteOffset": 788536,
      "componentType": 5126,
      "count": 65532,
      "max": [
        0.9980469942092896,
        0.9724289774894714
      ],
      "min": [
        0.0019529999699443579,
        0.006773000117391348
      ],
      "type": "VEC2"
    },
    {
      "bufferView": 0,
      "byteOffset": 1653384,
      "componentType": 5125,
      "count": 335421,
      "type": "SCALAR"
    },
    {
      "bufferView": 2,
      "byteOffset": 3938376,
      "componentType": 5126,
      "count": 26896,
      "max": [
        44.44620895385742,
        77.51526641845703,
        59.96676254272461
      ],
      "min": [
        -56.29508972167969,
        27.718364715576172,
        -0.10915499925613403
      ],
      "type": "VEC3"
    },
    {
      "bufferView": 2,
      "byteOffset": 4261128,
      "componentType": 5126,
      "count": 26896,
      "max": [
        0.9999995827674866,
        0.9999991059303284,
        0.9999998807907104
      ],
      "min": [
        -0.9999417662620544,
        -0.9999989867210388,
        -0.9999998211860657
      ],
      "type": "VEC3"
    },
    {
      "bufferView": 3,
      "byteOffset": 1048512,
      "componentType": 5126,
      "count": 26896,
      "max": [
        0.9999904036521912,
        0.9999263286590576,
        0.9999939799308777,
        1.0
      ],
      "min": [
        -0.9999957084655762,
        -0.999994695186615,
        -0.9999974966049194,
        1.0
      ],
      "type": "VEC4"
    },
    {
      "bufferView": 1,
      "byteOffset": 1312792,
      "componentType": 5126,
      "count": 26896,
      "max": [
        0.9843779802322388,
        0.9596049785614014
      ],
      "min": [
        0.05960699915885925,
        0.0019529999699443579
      ],
      "type": "VEC2"
    },
    {
      "bufferView": 0,
      "byteOffset": 2995068,
      "componentType": 5125,
      "count": 123321,
      "type": "SCALAR"
    }
  ],
  "asset": {
    "extras": {
      "author": "Naira (https://sketchfab.com/naira001)",
      "license": "CC-BY-4.0 (http://creativecommons.org/licenses/by/4.0/)",
      "source": "https://sketchfab.com/3d-models/wall-e384c79c2c7d477db3dbb45f7067b754",
      "title": "wall"
    },
    "generator": "Sketchfab-16.12.0",
    "version": "2.0"
  },
  "bufferViews": [
    {
      "buffer": 0,
      "byteLength": 3488352,
      "name": "floatBufferViews",
      "target": 34963
    },
    {
      "buffer": 0,
      "byteLength": 1527960,
      "byteOffset": 3488352,
      "byteStride": 8,
      "name": "floatBufferViews",
      "target": 34962
    },
    {
      "buffer": 0,
      "byteLength": 4583880,
      "byteOffset": 5016312,
      "byteStride": 12,
      "name": "floatBufferViews",
      "target": 34962
    },
    {
      "buffer": 0,
      "byteLength": 1478848,
      "byteOffset": 9600192,
      "byteStride": 16,
      "name": "floatBufferViews",
      "target": 34962
    }
  ],
  "buffers": [
    {
      "byteLength": 11079040,
      "uri": "scene.bin"
    }
  ],
  "extensionsUsed": [
    "KHR_materials_specular"
  ],
  "images": [
    {
      "uri": "textures/ves001SG1_baseColor.png"
    },
    {
      "uri": "textures/wall2_1SG_baseColor.jpeg"
    },
    {
      "uri": "textures/wall2_1SG_metallicRoughness.png"
    },
    {
      "uri": "textures/wall2_1SG_normal.png"
    }
  ],
  "materials": [
    {
      "doubleSided": true,
      "extensions": {
        "KHR_materials_specular": {
          "specularColorFactor": [
            1.0,
            1.0,
            1.0
          ],
          "specularFactor": 0.0
        }
      },
      "name": "ch001SG1",
      "pbrMetallicRoughness": {
        "baseColorFactor": [
          0.0768211682213516,
          0.040094213580968804,
          0.021383001542858007,
          1.0
        ],
        "metallicFactor": 0.02352736182502006
      }
    },
    {
      "alphaCutoff": 0.8760474721654801,
      "alphaMode": "MASK",
      "doubleSided": true,
      "extensions": {
        "KHR_materials_specular": {
          "specularColorFactor": [
            1.0,
            1.0,
            1.0
          ],
          "specularFactor": 0.0
        }
      },
      "name": "ves001SG1",
      "pbrMetallicRoughness": {
        "baseColorFactor": [
          0.38889312339950294,
          0.38889312339950294,
          0.38889312339950294,
          1.0
        ],
        "baseColorTexture": {
          "index": 0
        },
        "metallicFactor": 0.0
      }
    },
    {
      "doubleSided": true,
      "extensions": {
        "KHR_materials_specular": {
          "specularColorFactor": [
            1.0,
            1.0,
            1.0
          ],
          "specularFactor": 0.02352736182502006
        }
      },
      "name": "wall2_1SG",
      "normalTexture": {
        "index": 3
      },
      "occlusionTexture": {
        "index": 2
      },
      "pbrMetallicRoughness": {
        "baseColorFactor": [
          0.8638686134463307,
          0.8638686134463307,
          0.8638686134463307,
          1.0
        ],
        "baseColorTexture": {
          "index": 1
        },
        "metallicFactor": 0.06006393798246835,
        "metallicRoughnessTexture": {
          "index": 2
        }
      }
    }
  ],
  "meshes": [
    {
      "name": "Object_0",
      "primitives": [
        {
          "attributes": {
            "NORMAL": 1,
            "POSITION": 0,
            "TEXCOORD_0": 2
          },
          "indices": 3,
          "material": 0,
          "mode": 4
        }
      ]
    },
    {
      "name": "Object_1",
      "primitives": [
        {
          "attributes": {
            "NORMAL": 5,
            "POSITION": 4,
            "TEXCOORD_0": 6
          },
          "indices": 7,
          "material": 1,
          "mode": 4
        }
      ]
    },
    {
      "name": "Object_2",
      "primitives": [
        {
          "attributes": {
            "NORMAL": 9,
            "POSITION": 8,
            "TEXCOORD_0": 10
          },
          "indices": 11,
          "material": 1,
          "mode": 4
        }
      ]
    },
    {
      "name": "Object_3",
      "primitives": [
        {
          "attributes": {
            "NORMAL": 13,
            "POSITION": 12,
            "TANGENT": 14,
            "TEXCOORD_0": 15
          },
          "indices": 16,
          "material": 2,
          "mode": 4
        }
      ]
    },
    {
      "name": "Object_4",
      "primitives": [
        {
          "attributes": {
            "NORMAL": 18,
            "POSITION": 17,
            "TANGENT": 19,
            "TEXCOORD_0": 20
          },
          "indices": 21,
          "material": 2,
          "mode": 4
        }
      ]
    }
  ],
  "nodes": [
    {
      "children": [
        1
      ],
      "matrix": [
        1.0,
        0.0,
        0.0,
        0.0,
        0.0,
        2.220446049250313e-16,
        -1.0,
        0.0,
        0.0,
        1.0,
        2.220446049250313e-16,
        0.0,
        0.0,
        0.0,
        0.0,
        1.0
      ],
      "name": "Sketchfab_model"
    },
    {
      "children": [
        2,
        3,
        4,
        5,
        6
      ],
      "name": "wall.obj.cleaner.materialmerger.gles"
    },
    {
      "mesh": 0,
      "name": "Object_2"
    },
    {
      "mesh": 1,
      "name": "Object_3"
    },
    {
      "mesh": 2,
      "name": "Object_4"
    },
    {
      "mesh": 3,
      "name": "Object_5"
    },
    {
      "mesh": 4,
      "name": "Object_6"
    }
  ],
  "samplers": [
    {
      "magFilter": 9729,
      "minFilter": 9987,
      "wrapS": 10497,
      "wrapT": 10497
    }
  ],
  "scene": 0,
  "scenes": [
    {
      "name": "Sketchfab_Scene",
      "nodes": [
        0
      ]
    }
  ],
  "textures": [
    {
      "sampler": 0,
      "source": 0
    },
    {
      "sampler": 0,
      "source": 1
    },
    {
      "sampler": 0,
      "source": 2
    },
    {
      "sampler": 0,
      "source": 3
    }
  ]
}
